<?xml version="1.0" encoding="utf-8"?>
<!-- Generator: Adobe Illustrator 26.1.0, SVG Export Plug-In . SVG Version: 6.00 Build 0)  -->
<svg version="1.1" id="Layer_1" xmlns="http://www.w3.org/2000/svg" xmlns:xlink="http://www.w3.org/1999/xlink" x="0px" y="0px"
	 viewBox="0 0 2335.3 615.1" style="enable-background:new 0 0 2335.3 615.1;" xml:space="preserve">
<style type="text/css">
	.st0{fill:#F9F9F9;}
	.st1{fill:#F4F2ED;stroke:#000000;stroke-width:8;stroke-miterlimit:10;}
</style>
<path d="M2176,615.1H159.3C71.3,615.1,0,543.8,0,455.8V159.3C0,71.3,71.3,0,159.3,0H2176c88,0,159.3,71.3,159.3,159.3v296.6
	C2335.3,543.8,2264,615.1,2176,615.1z"/>
<g>
	<path class="st0" d="M1840.7,182.2c-31.7-18.3-73.3-35.1-124.2-50l36.3-7.9c6.7-1.5,11-8.1,9.6-14.9c-1.5-6.7-8.1-11-14.9-9.6
		l-84,18.3c-6.7-1.6-13.4,2.5-15,9.2c-0.1,0.3-0.1,0.5-0.1,0.8c-1.1,3.7-0.4,7.7,1.9,10.9l43,58.6c2.4,3.3,6.2,5.1,10.1,5.1
		c2.6,0,5.2-0.8,7.4-2.4c5.6-4.1,6.8-11.9,2.7-17.5l-23.6-32.2c123.6,33.6,196.3,77.7,196.3,120.1c0,31.6-40.9,64.9-115,93.8
		c-77.4,30.2-186.5,54.1-315.3,69.3c-6.9,0.8-11.8,7-11,13.9c0.7,6.4,6.1,11,12.4,11c0.5,0,1,0,1.5-0.1
		c130.9-15.4,242.1-39.8,321.5-70.8c40.7-15.9,72.4-33.2,94.2-51.6c24.4-20.6,36.8-42.6,36.8-65.5
		C1910.9,238.9,1887.3,209.1,1840.7,182.2z"/>
	<path class="st0" d="M811.9,432.4c-125.5-15.5-231.5-39.4-306.5-69.2c-71.8-28.6-111.4-61.4-111.4-92.4c0-14.7,9.3-37.8,53.6-64.5
		c35.2-21.2,85-40.4,148.3-57.2l-24.7,33.7c-4.1,5.6-2.9,13.4,2.7,17.5c2.2,1.6,4.8,2.4,7.4,2.4c3.8,0,7.6-1.8,10.1-5.1l43-58.6
		c2.5-3.4,3.1-7.9,1.6-11.8s-4.9-6.9-9-7.8L537,99.9c-6.7-1.5-13.4,2.8-14.9,9.6c-1.5,6.7,2.8,13.4,9.6,14.9l33.8,7.4
		c-54.4,15.8-98.2,33.7-130.8,53.2c-43.6,26.2-65.7,55.1-65.7,85.9c0,22.6,12,44.3,35.7,64.6c21.2,18.1,51.9,35.3,91.4,51
		c76.9,30.6,185,55.1,312.7,70.8c0.5,0.1,1,0.1,1.5,0.1c6.2,0,11.6-4.6,12.4-11C823.6,439.5,818.7,433.2,811.9,432.4z"/>
</g>
<path class="st1" d="M1125.9,185.8v-56.7c0-26-21.2-47.2-47.2-47.2c-26,0-47.2,21.2-47.2,47.2v139c-8.3-10.6-18.2-19.7-29.7-24.5
	c-12.9-5.3-26.4-4.7-39.2,1.8c-23.5,11.9-33.1,40.7-21.6,64.1l58.6,118.7c1.7,3.3,41.4,79.7,113.3,79.7h83.9
	c66.2,0,120-54.1,120-120.6l-0.1-111.8h-0.1v0v-4.4c0-26-21.2-47.2-47.2-47.2c-5.9,0-11.5,1.1-16.7,3.1c-4.4-21.5-23.5-36-46.2-37.7
	c-17.5-1.3-25.3,6.6-29.2,11.4C1177.4,200.7,1159.8,170.4,1125.9,185.8z M1196.9,476.4H1113c-51.8,0-84.1-60.3-85.3-62.5
	l-58.5-118.4c-4-8.2-0.7-17.9,7.6-22.1c4.6-2.3,8.6-2.6,12.9-0.8c17.4,7.1,34.4,41.4,41.1,61.4l5.1,15.2l27-9.6V129.1
	c0-8.7,7.1-15.7,15.7-15.7c8.7,0,15.7,7.1,15.7,15.7v181.5h0.3h31.2h0.3v-79.7c0-8.8,7.9-16.8,16.5-16.8c8.9,0,16.8,7.4,16.8,15.7
	v31.5v54.5h31.5v-79.3c0-8.7,7.1-15.7,15.7-15.7s15.7,7.1,15.7,15.7v34.6v59.4h31.5v-59.4c0-8.7,7.1-15.7,15.7-15.7
	c8.7,0,15.7,7.1,15.7,15.7v47.3h0.1l0.1,68.9C1285.4,436.4,1245.7,476.4,1196.9,476.4z"/>
</svg>
